<?xml version="1.0" encoding="utf-8"?>
<!-- Generator: Adobe Illustrator 20.1.0, SVG Export Plug-In . SVG Version: 6.00 Build 0)  -->
<svg version="1.1" id="Layer_1" xmlns="http://www.w3.org/2000/svg" xmlns:xlink="http://www.w3.org/1999/xlink" x="0px" y="0px"
	 viewBox="0 0 159.2 70.4" style="enable-background:new 0 0 159.2 70.4;" xml:space="preserve">
<style type="text/css">
	.st0{fill:#FFFFFF;}
	.st1{font-family:'RobotoSlab-Bold';}
	.st2{font-size:21px;}
</style>
<g>
	<text transform="matrix(1 0 0 1 71.7518 29.8559)" class="st0 st1 st2">Spread</text>
	<text transform="matrix(1 0 0 1 71.7518 52.5224)" class="st0 st1 st2">Analysis</text>
</g>
<g>
	<polygon class="st0" points="6,40.3 8,43.8 8,26.7 6,30.2 	"/>
	<polygon class="st0" points="22,66.3 22,4.1 21,4.1 20,5.9 20,64.6 21,66.3 	"/>
	<polygon class="st0" points="12.6,18.7 10.6,22.2 10.6,48.3 12.6,51.8 	"/>
	<polygon class="st0" points="17.3,10.6 15.3,14.1 15.3,56.4 17.3,59.9 	"/>
	<rect x="34" y="4.1" class="st0" width="2" height="62.2"/>
	<rect x="29.3" y="4.1" class="st0" width="2" height="62.2"/>
	<rect x="24.7" y="4.1" class="st0" width="2" height="62.2"/>
</g>
<g>
	<path class="st0" d="M54.6,6.1l16.8,29.1L54.6,64.3H21L4.1,35.2L21,6.1H54.6 M55.7,4.1H19.8L1.9,35.2l17.9,31.1h35.9l17.9-31.1
		L55.7,4.1L55.7,4.1z"/>
</g>
</svg>
